<?xml version="1.0" standalone="no"?>
<!DOCTYPE svg PUBLIC "-//W3C//DTD SVG 20010904//EN"
 "http://www.w3.org/TR/2001/REC-SVG-20010904/DTD/svg10.dtd">
<svg version="1.0" xmlns="http://www.w3.org/2000/svg"
 width="512.000000pt" height="512.000000pt" viewBox="0 0 512.000000 512.000000"
 preserveAspectRatio="xMidYMid meet">

<g transform="translate(0.000000,512.000000) scale(0.100000,-0.100000)"
fill="white" stroke="none">
<path d="M3600 4793 c-62 -7 -201 -44 -273 -73 -163 -67 -338 -202 -448 -348
-97 -128 -173 -309 -199 -475 -18 -110 -8 -330 20 -427 70 -250 206 -451 402
-596 385 -283 931 -270 1302 33 33 26 68 65 79 86 70 135 -9 289 -160 313 -58
9 -110 -10 -188 -67 -134 -99 -251 -139 -403 -139 -182 0 -319 57 -448 185
-66 65 -89 98 -122 166 -51 108 -66 172 -66 284 0 112 15 176 66 285 33 69 56
100 122 166 131 130 264 184 449 184 118 0 166 -11 272 -60 75 -35 195 -121
195 -140 0 -5 -74 -10 -164 -12 l-164 -3 -44 -30 c-135 -96 -120 -294 29 -369
28 -14 81 -16 407 -16 208 0 386 4 399 9 40 16 99 73 118 116 17 36 19 73 19
394 0 398 -2 413 -65 477 -122 121 -326 54 -360 -119 l-6 -28 -42 30 c-197
135 -473 202 -727 174z"/>
<path d="M820 4144 c-234 -50 -436 -254 -485 -489 -22 -105 -22 -2725 0 -2830
50 -238 252 -440 490 -490 105 -22 2725 -22 2830 0 238 50 440 252 490 490 20
94 22 1204 3 1269 -27 89 -134 156 -228 143 -107 -14 -177 -95 -187 -217 l-6
-71 -176 174 c-245 243 -330 293 -518 304 -119 7 -196 -8 -301 -58 -69 -34
-102 -59 -196 -150 l-113 -109 -279 284 c-292 297 -350 345 -467 386 -87 31
-249 38 -336 15 -140 -36 -180 -64 -393 -274 l-198 -195 0 626 0 625 23 44
c13 24 43 58 66 74 l43 30 601 5 602 5 47 28 c84 49 124 149 97 244 -16 59
-78 124 -135 141 -63 18 -1185 16 -1274 -4z m733 -1769 c18 -8 394 -377 837
-820 l805 -805 -1156 2 -1156 3 -39 27 c-21 15 -50 44 -64 65 l-25 37 -3 418
-3 419 312 317 c171 174 325 325 343 334 39 21 108 23 149 3z m1492 -376 c34
-9 92 -63 363 -332 l322 -322 0 -213 c0 -169 -3 -220 -15 -249 l-16 -37 -482
482 -482 482 86 85 c55 56 99 91 125 100 48 17 50 17 99 4z"/>
</g>
</svg>
