<?xml version="1.0" encoding="UTF-8"?>
<svg version="1.1" xmlns="http://www.w3.org/2000/svg" width="512" height="512">
<path d="M0 0 C4.91893774 4.33353093 9.77369371 8.71274158 14.52734375 13.2265625 C15.06149902 13.73203613 15.5956543 14.23750977 16.14599609 14.75830078 C24.44404761 22.66672611 31.70349525 31.02385171 38.52734375 40.2265625 C38.95112305 40.78956055 39.37490234 41.35255859 39.81152344 41.93261719 C76.81711047 91.2259933 92.48749745 154.77368736 84.00610352 215.76342773 C78.56194032 250.30704771 66.55495652 284.38145191 46.52734375 313.2265625 C46.00946289 313.97599121 45.49158203 314.72541992 44.95800781 315.49755859 C37.44635359 326.26075492 29.387848 336.18563932 20.18261719 345.54052734 C18.59609359 347.15653501 17.0325888 348.79196011 15.47265625 350.43359375 C8.38885835 357.80612071 0.72297498 364.13017107 -7.47265625 370.2265625 C-8.03710449 370.65179199 -8.60155273 371.07702148 -9.18310547 371.51513672 C-39.87526731 394.55418807 -75.70609899 408.8925487 -113.47265625 415.2265625 C-114.68179687 415.4328125 -115.8909375 415.6390625 -117.13671875 415.8515625 C-172.89806503 424.15629587 -234.1994738 410.35475895 -280.47265625 378.2265625 C-281.22208496 377.70868164 -281.97151367 377.19080078 -282.74365234 376.65722656 C-293.50684867 369.14557234 -303.43173307 361.08706675 -312.78662109 351.88183594 C-314.40262876 350.29531234 -316.03805386 348.73180755 -317.6796875 347.171875 C-325.05221446 340.0880771 -331.37626482 332.42219373 -337.47265625 324.2265625 C-338.11050049 323.37989014 -338.11050049 323.37989014 -338.76123047 322.51611328 C-361.79101358 291.83629842 -376.22798083 255.99642903 -382.47265625 218.2265625 C-382.6010791 217.50339844 -382.72950195 216.78023438 -382.86181641 216.03515625 C-392.78669953 158.40142936 -376.22967621 95.71642163 -343.35546875 48.1640625 C-341.43952554 45.48025099 -339.47777908 42.84424831 -337.47265625 40.2265625 C-336.85003906 39.41058594 -336.22742188 38.59460938 -335.5859375 37.75390625 C-330.24100949 30.91283206 -324.44741951 24.51537886 -318.47265625 18.2265625 C-317.96573242 17.69095703 -317.45880859 17.15535156 -316.93652344 16.60351562 C-309.02963777 8.30695811 -300.67364137 1.04913141 -291.47265625 -5.7734375 C-290.9096582 -6.1972168 -290.34666016 -6.62099609 -289.76660156 -7.05761719 C-256.89951489 -31.73163898 -218.15062443 -46.59575294 -177.47265625 -51.7734375 C-176.75513184 -51.86915039 -176.03760742 -51.96486328 -175.29833984 -52.06347656 C-113.59269428 -59.34137769 -47.48595921 -40.24233832 0 0 Z " fill="#327AEB" transform="translate(405.47265625,73.7734375)"/>
<path d="M0 0 C0.84833405 -0.0127597 1.69666809 -0.02551941 2.57070923 -0.03866577 C3.48113983 -0.04089142 4.39157043 -0.04311707 5.32958984 -0.04541016 C6.27683929 -0.05206696 7.22408875 -0.05872375 8.20004272 -0.06558228 C10.20560773 -0.07570275 12.21120636 -0.08039948 14.21679688 -0.08007812 C17.2588803 -0.08442741 20.29948407 -0.12068711 23.34130859 -0.15869141 C25.29573076 -0.16456476 27.25015976 -0.16853068 29.20458984 -0.17041016 C30.55201767 -0.19196671 30.55201767 -0.19196671 31.92666626 -0.21395874 C39.02447829 -0.1635986 46.21281091 1.14193031 51.61685181 6.06997681 C56.36861727 11.34910238 57.96468345 15.54555232 57.93295288 22.6651001 C57.93748399 23.41016335 57.94201511 24.15522661 57.94668353 24.92286754 C57.95934913 27.42080928 57.95770577 29.91853359 57.95605469 32.41650391 C57.96203868 34.20704937 57.96884393 35.99759224 57.97640991 37.78813171 C57.99409249 42.65399307 57.99876631 47.5197841 58.00004148 52.38567448 C58.00194039 56.44864036 58.00929801 60.51158986 58.01638567 64.57454944 C58.03267661 74.16266379 58.03755407 83.75074058 58.03613281 93.33886719 C58.03493189 103.22500271 58.05602224 113.11091974 58.08762014 122.99699998 C58.11378809 131.48716707 58.12449985 139.97726283 58.12322199 148.46746993 C58.12271242 153.53708939 58.12839303 158.6065148 58.14957809 163.67609406 C58.16896859 168.44664293 58.16907935 173.21681287 58.15454483 177.98737526 C58.15245649 179.7352612 58.15715917 181.4831709 58.16926575 183.23101616 C58.27583582 199.68679705 58.27583582 199.68679705 53.66552734 206.29052734 C46.69148073 213.26457396 40.1714623 214.75714762 30.70849609 214.75927734 C29.76549149 214.76689087 28.82248688 214.77450439 27.85090637 214.78234863 C25.86327753 214.79311228 23.87559231 214.796018 21.88793945 214.79150391 C18.87206997 214.79053347 15.85876339 214.83215905 12.84326172 214.87646484 C-6.44010538 214.99912379 -6.44010538 214.99912379 -13.33447266 209.29052734 C-15.58837891 206.93896484 -15.58837891 206.93896484 -16.89697266 204.66552734 C-17.35201172 203.91013672 -17.80705078 203.15474609 -18.27587891 202.37646484 C-20.37158656 198.24691544 -20.48285123 194.63198462 -20.48164368 190.11213684 C-20.48532036 189.37609512 -20.48899705 188.64005339 -20.49278516 187.88170737 C-20.50382304 185.40835453 -20.50766602 182.93504371 -20.51147461 180.46166992 C-20.51773922 178.69097765 -20.52438602 176.92028669 -20.53138733 175.14959717 C-20.5524317 169.32809363 -20.56279056 163.50658982 -20.57275391 157.68505859 C-20.57680142 155.68085911 -20.58091834 153.67665976 -20.58510399 151.67246056 C-20.60415705 142.25596203 -20.61838744 132.83947134 -20.62671596 123.42295724 C-20.63648704 112.55490796 -20.66280274 101.68706243 -20.70321685 90.81908494 C-20.73338434 82.41811793 -20.74818547 74.0172093 -20.75149697 65.61618918 C-20.75384688 60.59907888 -20.76279967 55.58218622 -20.78795815 50.56513405 C-20.81125466 45.84303998 -20.81546572 41.12130659 -20.80519676 36.39916992 C-20.80470166 34.66901639 -20.81101446 32.93884501 -20.82475281 31.20874596 C-20.94646685 14.96816194 -20.94646685 14.96816194 -16.33447266 8.29052734 C-14.33447266 6.26708984 -14.33447266 6.26708984 -12.33447266 4.91552734 C-11.67447266 4.45404297 -11.01447266 3.99255859 -10.33447266 3.51708984 C-6.7937039 1.34560275 -4.20926135 0.04321202 0 0 Z " fill="#F5F7F8" transform="translate(180.33447265625,148.70947265625)"/>
<path d="M0 0 C0.9666156 -0.00761353 1.9332312 -0.01522705 2.92913818 -0.02307129 C4.96982246 -0.03384875 7.01056178 -0.03673499 9.05126953 -0.03222656 C12.14841563 -0.03125734 15.24305682 -0.0728421 18.33984375 -0.1171875 C20.33072405 -0.12239765 22.32161288 -0.12508264 24.3125 -0.125 C25.22638489 -0.14139526 26.14026978 -0.15779053 27.08184814 -0.17468262 C33.89483249 -0.10270624 39.26445257 1.60792527 44.921875 5.46875 C50.36722394 11.26340294 52.04205373 15.65158472 52.07577515 23.63368225 C52.08234853 24.73562814 52.08234853 24.73562814 52.0890547 25.85983557 C52.10243949 28.32851601 52.10862091 30.79716076 52.11474609 33.26586914 C52.12264749 35.03331666 52.13091646 36.80076257 52.13952637 38.56820679 C52.16574821 44.38009093 52.18105693 50.19198228 52.1953125 56.00390625 C52.20067263 58.00558413 52.20605014 60.00726196 52.21144485 62.00893974 C52.23307627 70.33776379 52.25181142 78.66658591 52.26306725 86.99543095 C52.27929518 98.92460194 52.31244199 110.85344662 52.36946809 122.7824946 C52.4082089 131.17330014 52.42770501 139.56401856 52.43298781 147.95491117 C52.43663637 152.96431685 52.44860454 157.9733745 52.48109055 162.98268318 C52.51124298 167.69991326 52.51745747 172.41658607 52.50570679 177.13389206 C52.50548663 178.85998935 52.51374331 180.58611304 52.53136063 182.31212044 C52.70052173 199.84784939 52.70052173 199.84784939 46.921875 207.46875 C40.31291176 213.72161184 33.09096996 214.78604956 24.28125 214.83984375 C23.35902649 214.84887222 22.43680298 214.8579007 21.4866333 214.86720276 C19.54011256 214.88166811 17.59354362 214.89058273 15.64697266 214.89428711 C12.69478754 214.90615787 9.7447119 214.95535801 6.79296875 215.00585938 C-12.84881202 215.17518507 -12.84881202 215.17518507 -20.69238281 207.98999023 C-25.41255747 202.8082763 -26.37596681 197.76127805 -26.35227966 190.97392273 C-26.35751634 190.22800505 -26.36275302 189.48208737 -26.36814839 188.71356612 C-26.38312792 186.21873889 -26.38385308 183.72411713 -26.38452148 181.22924805 C-26.39214435 179.43855443 -26.40057206 177.64786409 -26.40974426 175.85717773 C-26.43168355 170.99551514 -26.4404874 166.13391544 -26.44557071 161.27220893 C-26.44921493 158.23365328 -26.45545534 155.19511409 -26.4625721 152.15656471 C-26.48706455 141.55269268 -26.50011807 130.94886957 -26.50366211 120.3449707 C-26.50729728 110.46615484 -26.5371919 100.58764967 -26.57906669 90.70892876 C-26.61377455 82.22298738 -26.62921064 73.73714895 -26.62990814 65.25113708 C-26.63070078 60.18483407 -26.63943354 55.1188476 -26.66790581 50.05261803 C-26.69409488 45.2861017 -26.69628695 40.52016418 -26.68025017 35.7536087 C-26.67843635 34.00732727 -26.68512035 32.26101248 -26.70106888 30.51480293 C-26.84748857 13.43791102 -26.84748857 13.43791102 -21.078125 7.46875 C-14.59328602 1.31646686 -8.63105479 0.00188554 0 0 Z " fill="#F5F7F8" transform="translate(300.078125,148.53125)"/>
</svg>
